<?xml version="1.0" standalone="no"?>
<!DOCTYPE svg PUBLIC "-//W3C//DTD SVG 20010904//EN"
 "http://www.w3.org/TR/2001/REC-SVG-20010904/DTD/svg10.dtd">
<svg version="1.0" xmlns="http://www.w3.org/2000/svg"
 width="700.000000pt" height="700.000000pt" viewBox="0 0 700.000000 700.000000"
 preserveAspectRatio="xMidYMid meet">
<metadata>
Created by potrace 1.14, written by Peter Selinger 2001-2017
</metadata>
<g transform="translate(0.000000,700.000000) scale(0.100000,-0.100000)"
fill="#000000" stroke="none">
<path d="M1060 6980 c-175 -33 -366 -109 -495 -199 -54 -38 -151 -115 -175
-141 -213 -222 -303 -395 -376 -720 -5 -19 -9 -1099 -11 -2400 -2 -2275 -1
-2369 17 -2461 35 -179 109 -365 199 -494 39 -57 126 -161 156 -188 11 -10 38
-35 60 -56 153 -143 394 -258 630 -302 96 -17 206 -18 2460 -16 1298 1 2372 6
2388 10 15 4 37 9 50 11 327 60 638 269 823 551 65 101 115 203 147 302 32 99
36 118 56 238 6 38 10 913 9 2385 0 2516 2 2408 -54 2590 -123 399 -432 716
-821 844 -202 65 20 60 -2598 62 -2235 2 -2375 1 -2465 -16z"/>
</g>
</svg>
